<?xml version="1.0" encoding="UTF-8"?>
<svg version="1.1" viewBox="0 0 2048 2016" width="1280" height="1280" xmlns="http://www.w3.org/2000/svg">
<path transform="translate(0)" d="m0 0h2048v2016h-2048z" fill="#FDFDFD"/>
<path transform="translate(580,157)" d="m0 0h100l783 1v118l-1 43-1 1-82-1-1-9v-67h-314l-1 26-1 180-1 32-3 1h-20l-58-1-1-1-2-76h-151l1 153 474 1v316l-3 2h-232l-3-1 2 59 1 18 312-1v-136l1-341 1-78h76l7 1v508l-1 133h-882l-1-1v-342l1-299h83l1 555h314l1-215 1-13 9-1 53-1h20l1 2-2 37v19l3 9 6 4h67l60 1 13-1 5-1 1-4v-104l-1-38-4-1-54-3-29-1-77-1h-184l-86 2-23 1h-15v-321h24l57 1h92l31-1 23-2 9-2-1-66-1-8h-187l-126-1-1 77-1 1h-19l-63-1-1-63v-94z" fill="#9B2188"/>
<path transform="translate(319,1168)" d="m0 0h248l1 1 1 57v18l-1 4h-13l-4-4-7-16-10-18-9-11-10-7-8-4-14-3-14-1-54-1 1 122h17l14-3 13-7 7-9 6-11 5-24h16v128h-16l-3-20-5-14-7-10-7-6-8-4-10-2-22-1-1 131 54-1 15-1 15-3 17-9 11-10 9-12 8-16 8-21 2-11 1-1h15l1 3-2 69-1 20-1 8-1 1h-263v-16l36-1-1-268-30-1-1-5v-9z" fill="#040404"/>
<path transform="translate(617,1168)" d="m0 0h119l5 5 10 14 28 38 12 17 12 16 14 19 13 18 14 19 13 18 4 6 1-4v-134l-2-11-4-3-15-2-20-1v-14l1-1h93l3 2v13l-3 1h-17l-10 2-5 2-2 15-1 272-1 1h-9l-5-3-8-11-13-18-10-14-14-19-13-18-14-19-13-18-12-17-42-57-26-36-12-17-14-19v-2h-2l1 234 3 7 3 2 38 2-1 15-1 1h-100l-1-1v-15l34-2 4-6 1-8v-242l-1-9-19-2-18-1v-14z" fill="#030303"/>
<path transform="translate(1816,1162)" d="m0 0h18l2 2 6 17 13 34 17 44 18 47 18 46 11 29 18 46 8 21 1 4 27 1 1 4-1 12h-144l-1-1v-15l1-1h34l-11-29-10-26-3-9v-4h-92l-3 9-15 40-2 8v7l1 3 4 1 34 1v15l-1 1h-93v-16l4-1h16l9-2 6-8 4-8 20-52 16-42 19-49 13-34 10-26 12-31 14-37z" fill="#040404"/>
<path transform="translate(944,1168)" d="m0 0h278l2 1 2 70 1 26h-13l-5-16-9-24-6-11-9-12-9-8-14-7-11-2-13-1h-15l-1 269h37l1 1v14l-1 1h-150l-1-1v-15l37-1-1-7v-261h-19l-17 2-12 5-10 7-8 9-9 15-10 24-5 18-2 2-12-1v-18l3-78z" fill="#040304"/>
<path transform="translate(158,1162)" d="m0 0h14l21 4 17 6 15 8 4-1 11-9 14-3 2 2 1 7 2 72-1 1h-9l-7-2-5-17-7-14-9-13-9-9-10-7-11-5-12-3-6-1h-18l-14 2-16 7-10 9-6 10-3 10v7l4 11 8 9 12 7 16 6 23 6 21 5 27 9 17 8 15 10 9 8 9 13 6 14 5 19 2 17-1 19-5 23-5 12-7 13-8 10-12 12-15 10-11 5-12 4-19 3h-19l-20-3-17-5-16-8-6-4-4 2-7 6-5 5-8 3-14 1v-89l1-1h16l3 5 8 21 8 14 9 11 10 10 7 5 18 8 16 3h22l15-3 16-7 8-6 7-7 6-10 3-9 1-5v-16l-3-10-5-8v-2l-4-2-9-7-19-8-29-8-30-7-20-7-20-11-9-7-9-9-9-16-4-12-3-19v-15l2-14 5-18 8-15 9-11 5-6 14-10 15-7 21-5z" fill="#040404"/>
<path transform="translate(1432,1168)" d="m0 0h124l1 1v14h-35l9 20 32 78 35 84 4-9 15-43 19-55 15-42 6-17v-13l-21-2-19-1v-14l1-1h38l56 1 1 1v8l-1 5-16 1-12 3-5 5-9 19-12 34-9 26-7 19-12 34-10 28-14 39-13 36-15 42-3 6-5 1h-9l-3-5-5-14-14-34-24-58-11-27-17-41-16-39-15-36-13-32-2-6-26-1v-14z" fill="#030303"/>
<path transform="translate(1250,1168)" d="m0 0h112l38 1v14l-37 1-1 269h37l1 3-1 12-1 1h-150l-1-1 1-15 35-1 1-269h-36v-14z" fill="#040404"/>
<path transform="translate(1141,319)" d="m0 0h160v166h-22l-39-1-23-1-1-24-1-44-1-10-70-1-3-1-1-10v-73z" fill="#9B2188"/>
<path transform="translate(768,718)" d="m0 0h57l1 1 1 71 72 1 1 1 1 26v58h-158l-1-1-1-28v-128z" fill="#9B2188"/>
<path transform="translate(981,1674)" d="m0 0h18l14 3 13 7 9 8 8 14 6 16 2 10v23l-3 15-6 16-7 10-7 7-12 7-15 4h-21l-12-3-13-8-8-7-7-10-6-15-2-8-1-11v-20l3-16 5-12 7-11 10-9 16-8z" fill="#FDFDFD"/>
<path transform="translate(1304,1674)" d="m0 0h22l13 3 10 6 10 9 7 10 6 15 3 11 1 7v17l-3 17-6 16-5 8-8 9-11 7-12 4-6 1h-19l-12-3-10-5-8-6-9-11-7-14-3-10-1-9v-15l1-17 4-14 6-12 11-12 11-7 11-4z" fill="#FDFDFD"/>
<path transform="translate(739,1657)" d="m0 0h24l22 33 29 43 10 16 27 40 4 4-1-5v-131h22v173l-1 1h-12l-12-1-14-21-29-43-17-26-20-30-8-11-1-1-1 124-1 8-2 1h-17l-2-1z" fill="#5C5C5E"/>
<path transform="translate(1495,1655)" d="m0 0h30l18 4 12 6 10 9 6 7 7 12 3 8v5l-4 2-10 2h-7l-5-13-6-9-10-8-10-4-6-1h-28l-13 4-9 5-10 9-7 11-6 16-2 9v30l4 15 8 16 7 8 10 7 12 5 8 2h26l14-3 17-8 6-5 1-4 1-29h-46l-5-2v-19h72l1 1v64l-4 4-15 9-14 7-17 5-14 2h-17l-21-4-15-6-10-6-10-8-9-11-8-16-5-15-2-12v-22l4-20 5-14 9-16 11-12 12-8 15-6z" fill="#5C5B5E"/>
<path transform="translate(1311,1654)" d="m0 0 18 1 18 4 16 8 11 9 8 9 8 14 5 12 4 20 1 15-3 21-4 15-5 11-6 10-9 10-7 6-16 9-19 5-8 1h-13l-17-3-15-5-14-9-7-6-10-13-8-16-5-16-2-14 1-24 4-17 7-16 6-10 11-12 9-7 14-7 17-4zm-7 20-13 4-12 7-9 9-5 7-6 15-2 8-1 17v15l2 13 5 13 7 11 6 7 13 9 11 4 6 1h19l16-4 10-6 9-8 6-9 6-14 3-13 1-8v-17l-3-15-6-16-7-11-8-8-13-8-13-3z" fill="#5C5B5E"/>
<path transform="translate(974,1655)" d="m0 0h31l17 4 16 8 10 8 7 7 9 14 5 12 4 16 1 7v27l-4 18-5 13-6 11-8 10-10 9-14 8-11 4-17 3h-14l-17-3-14-5-12-7-10-9-9-10-8-16-5-15-2-8v-33l4-17 6-15 6-10 9-10 9-8 10-6 13-5zm7 19-12 3-13 7-10 9-7 11-5 12-3 16v20l2 16 5 14 6 10 8 9 14 9 9 3 5 1h21l15-4 12-7 9-9 6-10 6-17 2-12v-23l-4-16-7-16-7-10-10-8-13-6-11-2z" fill="#5C5C5E"/>
<path transform="translate(225,1657)" d="m0 0h126v18l-1 1-102 1v54h96v20h-96v27l1 32 106 1v20h-127l-3-1z" fill="#5B5B5D"/>
<path transform="translate(1687,1657)" d="m0 0h126v19l-97 1-6 1v53h95l1 1v18l-1 1-94 1-1 59h106v12l-1 8h-126l-2-1z" fill="#5C5C5E"/>
<path transform="translate(1904,1654)" d="m0 0h11l19 3 13 5 10 7 9 10 6 13 2 7v7l-16 2h-6l-2-12-6-9-7-6-8-4-10-2h-19l-10 2-10 5-7 8-3 9 2 10 3 5v2l5 2 17 6 37 10 17 6 11 6 6 5 7 11 3 7 1 5v14l-3 12-5 9-9 10-10 7-14 5-8 2-10 1h-13l-20-3-12-4-12-7-11-11-8-15-3-13v-5l1-1 20-2 3 9 3 10 9 10 8 5 11 4 15 2 17-1 11-3 9-6 6-7 3-6v-12l-4-8-7-6-15-6-23-6-22-6-12-5-10-6-6-5-6-9-4-10v-17l4-12 7-10 9-8 10-5 15-4z" fill="#5C5C5E"/>
<path transform="translate(564,1657)" d="m0 0h23v71h90v-71h23v173l-1 1h-11l-11-1-1-80h-88l-1 80-2 1h-20l-1-1z" fill="#5C5C5E"/>
<path transform="translate(458,1654)" d="m0 0 19 1 16 4 13 7 11 11 7 10 7 13-1 5-10 3-12 2-5-13-6-9-9-8-9-4-4-1h-26l-13 4-10 6-8 9-6 10-5 14-3 19 1 18 6 25 4 10 7 9 9 7 11 5 10 2h19l13-4 10-7 7-8 8-16 3-8 17 4 5 2-2 9-6 14-8 11-10 10-14 8-11 4-13 2h-17l-14-2-15-5-10-6-10-8-9-12-7-15-5-17-2-12v-29l4-20 7-16 7-10 7-8 14-10 14-6 13-3z" fill="#5C5C5E"/>
<path transform="translate(0,2012)" d="m0 0h2048v4h-2048z" fill="#171718"/>
<path transform="translate(64,1657)" d="m0 0h137v19l-58 1v153l-1 1h-18l-4-1v-153l-57-1v-12z" fill="#5C5B5E"/>
<path transform="translate(1104,1657)" d="m0 0h22l1 2v151l85 1 1 4-1 15-1 1h-105l-2-1-1-62v-110z" fill="#5C5C5E"/>
<path transform="translate(1793,1265)" d="m0 0 3 3 7 21 14 37 13 34 2 5v3h-79l3-10 33-83z" fill="#FDFDFD"/>
<path transform="translate(1623,1657)" d="m0 0h21l1 9v164l-1 1h-18l-3-1z" fill="#5C5C5E"/>
</svg>
